<svg width="28" height="27" viewBox="0 0 28 27" fill="none" xmlns="http://www.w3.org/2000/svg">
<path fill-rule="evenodd" clip-rule="evenodd" d="M5.04657 4.54657C3.875 5.71815 3.875 7.60376 3.875 11.375V15.625C3.875 19.3962 3.875 21.2819 5.04657 22.4534C6.21815 23.625 8.10376 23.625 11.875 23.625H16.125C19.8962 23.625 21.7819 23.625 22.9534 22.4534C24.125 21.2819 24.125 19.3962 24.125 15.625V11.375C24.125 7.60376 24.125 5.71815 22.9534 4.54657C21.7819 3.375 19.8962 3.375 16.125 3.375H11.875C8.10376 3.375 6.21815 3.375 5.04657 4.54657ZM13 7.875V12.5H8.375V14.5H13V19.125H15V14.5H19.625V12.5H15V7.875H13Z" fill="black"/>
</svg>
