<svg width="28" height="27" viewBox="0 0 28 27" fill="none" xmlns="http://www.w3.org/2000/svg">
<path fill-rule="evenodd" clip-rule="evenodd" d="M6.43377 11.3919C6.125 12.0633 6.125 12.827 6.125 14.3545V19.1249C6.125 21.2463 6.125 22.3069 6.78401 22.9659C7.39607 23.578 8.35458 23.6216 10.1875 23.6247V18C10.1875 16.8264 11.1389 15.875 12.3125 15.875H15.6875C16.8611 15.875 17.8125 16.8264 17.8125 18V23.6247C19.6454 23.6216 20.6039 23.578 21.216 22.9659C21.875 22.3069 21.875 21.2463 21.875 19.1249V14.3545C21.875 12.827 21.875 12.0633 21.5662 11.3919C21.2575 10.7206 20.6776 10.2236 19.5178 9.22951L18.3928 8.26522C16.2966 6.46845 15.2485 5.57007 14 5.57007C12.7515 5.57007 11.7034 6.46845 9.60716 8.26522L9.60716 8.26522L8.48216 9.22951C7.32241 10.2236 6.74254 10.7206 6.43377 11.3919ZM15.8125 23.6249V18C15.8125 17.931 15.7565 17.875 15.6875 17.875H12.3125C12.2435 17.875 12.1875 17.931 12.1875 18V23.6249H15.8125Z" fill="black"/>
</svg>
