<svg width="28" height="27" viewBox="0 0 28 27" fill="none" xmlns="http://www.w3.org/2000/svg">
<path fill-rule="evenodd" clip-rule="evenodd" d="M14.3981 20.0551C15.9981 19.2331 21.875 15.8259 21.875 10.125C21.875 5.77576 18.3492 2.25 14 2.25C9.65076 2.25 6.125 5.77576 6.125 10.125C6.125 15.8259 12.0019 19.2331 13.6019 20.0551C13.8553 20.1853 14.1447 20.1853 14.3981 20.0551ZM14 13.5C15.864 13.5 17.375 11.989 17.375 10.125C17.375 8.26104 15.864 6.75 14 6.75C12.136 6.75 10.625 8.26104 10.625 10.125C10.625 11.989 12.136 13.5 14 13.5Z" fill="black"/>
<path d="M20.8199 18.5625C21.5111 19.0756 21.875 19.6576 21.875 20.25C21.875 20.8424 21.5111 21.4244 20.82 21.9375C20.1288 22.4506 19.1347 22.8766 17.9375 23.1728C16.7403 23.4691 15.3824 23.625 14 23.625C12.6176 23.625 11.2597 23.4691 10.0625 23.1728C8.86535 22.8766 7.87123 22.4506 7.18005 21.9375C6.48887 21.4244 6.125 20.8424 6.125 20.25C6.125 19.6576 6.48887 19.0756 7.18005 18.5625" stroke="black" stroke-width="2" stroke-linecap="round"/>
</svg>
