<svg width="28" height="27" viewBox="0 0 28 27" fill="none" xmlns="http://www.w3.org/2000/svg">
<path fill-rule="evenodd" clip-rule="evenodd" d="M12.875 20.25C17.2242 20.25 20.75 16.7242 20.75 12.375C20.75 8.02576 17.2242 4.5 12.875 4.5C8.52576 4.5 5 8.02576 5 12.375C5 16.7242 8.52576 20.25 12.875 20.25ZM12.875 6.875C12.1527 6.875 11.4375 7.01726 10.7702 7.29366C10.103 7.57006 9.49663 7.97519 8.98591 8.48591C8.47519 8.99664 8.07006 9.60295 7.79366 10.2702C7.51726 10.9375 7.375 11.6527 7.375 12.375C7.375 12.9273 7.82272 13.375 8.375 13.375C8.92728 13.375 9.375 12.9273 9.375 12.375C9.375 11.9154 9.46553 11.4602 9.64142 11.0356C9.81731 10.611 10.0751 10.2251 10.4001 9.90013C10.7251 9.57512 11.111 9.31731 11.5356 9.14142C11.9602 8.96553 12.4154 8.875 12.875 8.875C13.4273 8.875 13.875 8.42728 13.875 7.875C13.875 7.32272 13.4273 6.875 12.875 6.875Z" fill="black"/>
<path d="M23 22.5L20.75 20.25" stroke="black" stroke-width="2" stroke-linecap="round"/>
</svg>
