<svg width="25" height="24" viewBox="0 0 25 24" fill="none" xmlns="http://www.w3.org/2000/svg">
<path fill-rule="evenodd" clip-rule="evenodd" d="M21.5 6H3.5V9C4.60457 9 5.5 9.89543 5.5 11V15C5.5 17.8284 5.5 19.2426 6.37868 20.1213C7.25736 21 8.67157 21 11.5 21H13.5C16.3284 21 17.7426 21 18.6213 20.1213C19.5 19.2426 19.5 17.8284 19.5 15V11C19.5 9.89543 20.3954 9 21.5 9V6ZM11 11C11 10.4477 10.5523 10 10 10C9.44772 10 9 10.4477 9 11V16C9 16.5523 9.44772 17 10 17C10.5523 17 11 16.5523 11 16V11ZM16 11C16 10.4477 15.5523 10 15 10C14.4477 10 14 10.4477 14 11V16C14 16.5523 14.4477 17 15 17C15.5523 17 16 16.5523 16 16V11Z" fill="#FF0000"/>
<path d="M10.5681 3.37059C10.6821 3.26427 10.9332 3.17033 11.2825 3.10332C11.6318 3.03632 12.0597 3 12.5 3C12.9403 3 13.3682 3.03632 13.7175 3.10332C14.0668 3.17033 14.3179 3.26427 14.4319 3.37059" stroke="#FF0000" stroke-width="2" stroke-linecap="round"/>
</svg>

