<svg width="88" height="88" viewBox="0 0 88 88" fill="none" xmlns="http://www.w3.org/2000/svg">
<path d="M69.6666 33C69.6666 52.9376 47.6124 64.2679 44.3908 65.8166C44.134 65.9401 43.8659 65.9401 43.6092 65.8166C40.3875 64.2679 18.3333 52.9376 18.3333 33C18.3333 18.8247 29.8247 7.33331 44 7.33331C58.1753 7.33331 69.6666 18.8247 69.6666 33Z" fill="#FEAEAE"/>
<path d="M66.228 60.5C68.4807 62.1722 69.6666 64.0691 69.6666 66C69.6666 67.9309 68.4807 69.8278 66.228 71.5C63.9752 73.1722 60.7351 74.5608 56.8333 75.5263C52.9315 76.4917 48.5054 77 44 77C39.4945 77 35.0685 76.4917 31.1666 75.5263C27.2648 74.5608 24.0247 73.1722 21.772 71.5C19.5193 69.8278 18.3333 67.9309 18.3333 66C18.3333 64.0691 19.5193 62.1722 21.772 60.5" stroke="#FEAEAE" stroke-width="5" stroke-linecap="round"/>
<rect x="45.9583" y="37.4167" width="2.91667" height="2.91667" rx="1" fill="#33363F"/>
<rect x="37.2083" y="33.0417" width="2.91667" height="8.75" rx="1" fill="#33363F"/>
<rect x="43.0417" y="35.9583" width="2.91667" height="8.75" rx="1" transform="rotate(90 43.0417 35.9583)" fill="#33363F"/>
<rect x="50.3333" y="34.5" width="2.91667" height="2.91667" rx="1" fill="#33363F"/>
<path d="M47.4166 28.6667V28.6667C47.4166 27.3688 47.4166 26.7199 47.0947 26.2234C47.0311 26.1253 46.959 26.033 46.8793 25.9475C46.4757 25.5148 45.8462 25.3574 44.5871 25.0426L44.5 25.0209C43.1559 24.6848 42.4838 24.5168 42.0698 24.0375C42.0266 23.9875 41.9859 23.9354 41.9479 23.8814C41.5833 23.3635 41.5833 22.6707 41.5833 21.2853V19.9167" stroke="#33363F" stroke-width="3" stroke-linecap="round"/>
<path d="M31.375 37.4167C31.375 33.6851 31.375 31.8193 32.2791 30.534C32.5118 30.2031 32.7833 29.9069 33.0867 29.653C34.2649 28.6667 35.9752 28.6667 39.3958 28.6667H49.6042C53.0248 28.6667 54.7351 28.6667 55.9133 29.653C56.2167 29.9069 56.4882 30.2031 56.7209 30.534C57.625 31.8193 57.625 33.6851 57.625 37.4167C57.625 41.1483 57.625 43.0141 56.7209 44.2994C56.4882 44.6303 56.2167 44.9265 55.9133 45.1804C54.7351 46.1667 53.0248 46.1667 49.6042 46.1667H39.3958C35.9752 46.1667 34.2649 46.1667 33.0867 45.1804C32.7833 44.9265 32.5118 44.6303 32.2791 44.2994C31.375 43.0141 31.375 41.1483 31.375 37.4167Z" stroke="#33363F" stroke-width="3"/>
</svg>
