<svg width="88" height="88" viewBox="0 0 88 88" fill="none" xmlns="http://www.w3.org/2000/svg">
<path d="M69.6666 33C69.6666 52.9376 47.6124 64.2679 44.3908 65.8166C44.134 65.9401 43.8659 65.9401 43.6092 65.8166C40.3875 64.2679 18.3333 52.9376 18.3333 33C18.3333 18.8247 29.8247 7.33331 44 7.33331C58.1753 7.33331 69.6666 18.8247 69.6666 33Z" fill="#D4DAE9"/>
<path d="M66.228 60.5C68.4807 62.1722 69.6666 64.0691 69.6666 66C69.6666 67.9309 68.4807 69.8278 66.228 71.5C63.9752 73.1722 60.7351 74.5608 56.8333 75.5263C52.9315 76.4917 48.5054 77 44 77C39.4945 77 35.0685 76.4917 31.1666 75.5263C27.2648 74.5608 24.0247 73.1722 21.772 71.5C19.5193 69.8278 18.3333 67.9309 18.3333 66C18.3333 64.0691 19.5193 62.1722 21.772 60.5" stroke="#D4DAE9" stroke-width="5" stroke-linecap="round"/>
<path d="M55.5 35.5V43.875C55.5 45.7606 55.5 46.7034 54.9142 47.2892C54.3284 47.875 53.3856 47.875 51.5 47.875H36.9375C36.5312 47.875 36.328 47.875 36.1571 47.8553C34.7719 47.696 33.679 46.6031 33.5197 45.2179C33.5 45.047 33.5 44.8438 33.5 44.4375V44.4375C33.5 44.0312 33.5 43.828 33.5197 43.6571C33.679 42.2719 34.7719 41.179 36.1571 41.0197C36.328 41 36.5312 41 36.9375 41H51.5C53.3856 41 54.3284 41 54.9142 40.4142C55.5 39.8284 55.5 38.8856 55.5 37V27.125C55.5 25.2394 55.5 24.2966 54.9142 23.7108C54.3284 23.125 53.3856 23.125 51.5 23.125H37.5C35.6144 23.125 34.6716 23.125 34.0858 23.7108C33.5 24.2966 33.5 25.2394 33.5 27.125V44.4375" stroke="black" stroke-width="3"/>
<path d="M40.375 30L48.625 30" stroke="black" stroke-width="3" stroke-linecap="round"/>
</svg>
