<svg width="88" height="88" viewBox="0 0 88 88" fill="none" xmlns="http://www.w3.org/2000/svg">
<path d="M69.6666 33C69.6666 52.9376 47.6124 64.2679 44.3908 65.8166C44.134 65.9401 43.8659 65.9401 43.6092 65.8166C40.3875 64.2679 18.3333 52.9376 18.3333 33C18.3333 18.8247 29.8247 7.33331 44 7.33331C58.1753 7.33331 69.6666 18.8247 69.6666 33Z" fill="#E3C79C"/>
<path d="M66.228 60.5C68.4807 62.1722 69.6666 64.0691 69.6666 66C69.6666 67.9309 68.4807 69.8278 66.228 71.5C63.9752 73.1722 60.7351 74.5608 56.8333 75.5263C52.9315 76.4917 48.5054 77 44 77C39.4945 77 35.0685 76.4917 31.1666 75.5263C27.2648 74.5608 24.0247 73.1722 21.772 71.5C19.5193 69.8278 18.3333 67.9309 18.3333 66C18.3333 64.0691 19.5193 62.1722 21.772 60.5" stroke="#E3C79C" stroke-width="5" stroke-linecap="round"/>
<path d="M35.0909 48C34.7303 48 34.428 47.8722 34.1841 47.6167C33.9402 47.3611 33.8182 47.0444 33.8182 46.6667V45.3333C32.7576 45.3333 31.8561 44.9444 31.1136 44.1667C30.3712 43.3889 30 42.4444 30 41.3333V34.6667C30 33.5556 30.3712 32.6111 31.1136 31.8333C31.8561 31.0556 32.7576 30.6667 33.8182 30.6667V28C33.8182 26.8889 34.1894 25.9444 34.9318 25.1667C35.6742 24.3889 36.5758 24 37.6364 24H50.3636C51.4242 24 52.3258 24.3889 53.0682 25.1667C53.8106 25.9444 54.1818 26.8889 54.1818 28V30.6667C55.2424 30.6667 56.1439 31.0556 56.8864 31.8333C57.6288 32.6111 58 33.5556 58 34.6667V41.3333C58 42.4444 57.6288 43.3889 56.8864 44.1667C56.1439 44.9444 55.2424 45.3333 54.1818 45.3333V46.6667C54.1818 47.0444 54.0598 47.3611 53.8159 47.6167C53.572 47.8722 53.2697 48 52.9091 48C52.5485 48 52.2462 47.8722 52.0023 47.6167C51.7583 47.3611 51.6364 47.0444 51.6364 46.6667V45.3333H36.3636V46.6667C36.3636 47.0444 36.2417 47.3611 35.9977 47.6167C35.7538 47.8722 35.4515 48 35.0909 48ZM33.8182 42.6667H54.1818C54.5424 42.6667 54.8447 42.5389 55.0886 42.2833C55.3326 42.0278 55.4545 41.7111 55.4545 41.3333V34.6667C55.4545 34.2889 55.3326 33.9722 55.0886 33.7167C54.8447 33.4611 54.5424 33.3333 54.1818 33.3333C53.8212 33.3333 53.5189 33.4611 53.275 33.7167C53.0311 33.9722 52.9091 34.2889 52.9091 34.6667V40H35.0909V34.6667C35.0909 34.2889 34.9689 33.9722 34.725 33.7167C34.4811 33.4611 34.1788 33.3333 33.8182 33.3333C33.4576 33.3333 33.1553 33.4611 32.9114 33.7167C32.6674 33.9722 32.5455 34.2889 32.5455 34.6667V41.3333C32.5455 41.7111 32.6674 42.0278 32.9114 42.2833C33.1553 42.5389 33.4576 42.6667 33.8182 42.6667ZM37.6364 37.3333H50.3636V34.6667C50.3636 34.0667 50.4803 33.5222 50.7136 33.0333C50.947 32.5444 51.2545 32.1111 51.6364 31.7333V28C51.6364 27.6222 51.5144 27.3056 51.2705 27.05C51.0265 26.7944 50.7242 26.6667 50.3636 26.6667H37.6364C37.2758 26.6667 36.9735 26.7944 36.7295 27.05C36.4856 27.3056 36.3636 27.6222 36.3636 28V31.7333C36.7455 32.1111 37.053 32.5444 37.2864 33.0333C37.5197 33.5222 37.6364 34.0667 37.6364 34.6667V37.3333Z" fill="#1C1B1F"/>
</svg>
