<svg width="88" height="88" viewBox="0 0 88 88" fill="none" xmlns="http://www.w3.org/2000/svg">
<path d="M69.6666 33C69.6666 52.9376 47.6124 64.2679 44.3908 65.8166C44.134 65.9401 43.8659 65.9401 43.6092 65.8166C40.3875 64.2679 18.3333 52.9376 18.3333 33C18.3333 18.8247 29.8247 7.33331 44 7.33331C58.1753 7.33331 69.6666 18.8247 69.6666 33Z" fill="#D4E9D6"/>
<path d="M66.228 60.5C68.4807 62.1722 69.6666 64.0691 69.6666 66C69.6666 67.9309 68.4807 69.8278 66.228 71.5C63.9752 73.1722 60.7351 74.5608 56.8333 75.5263C52.9315 76.4917 48.5054 77 44 77C39.4945 77 35.0685 76.4917 31.1666 75.5263C27.2648 74.5608 24.0247 73.1722 21.772 71.5C19.5193 69.8278 18.3333 67.9309 18.3333 66C18.3333 64.0691 19.5193 62.1722 21.772 60.5" stroke="#D4E9D6" stroke-width="5" stroke-linecap="round"/>
<path d="M43.75 32.3333C44.1514 32.3333 44.4878 32.1976 44.7594 31.926C45.0309 31.6545 45.1667 31.3181 45.1667 30.9167C45.1667 30.5153 45.0309 30.1788 44.7594 29.9073C44.4878 29.6358 44.1514 29.5 43.75 29.5C43.3486 29.5 43.0122 29.6358 42.7406 29.9073C42.4691 30.1788 42.3333 30.5153 42.3333 30.9167C42.3333 31.3181 42.4691 31.6545 42.7406 31.926C43.0122 32.1976 43.3486 32.3333 43.75 32.3333ZM43.75 40.8333C42.8292 40.8333 41.9969 40.5795 41.2531 40.0719C40.5094 39.5642 39.9722 38.8972 39.6417 38.0708C39.5236 38.0708 39.4174 38.0767 39.3229 38.0885C39.2285 38.1003 39.1222 38.1062 39.0042 38.1062C37.7764 38.1062 36.7257 37.6694 35.8521 36.7958C34.9785 35.9222 34.5417 34.8715 34.5417 33.6438C34.5417 33.1479 34.6243 32.6698 34.7896 32.2094C34.9549 31.749 35.2028 31.3181 35.5333 30.9167C35.2264 30.5153 34.9903 30.0844 34.825 29.624C34.6597 29.1635 34.5771 28.6854 34.5771 28.1896C34.5771 26.9618 35.008 25.9111 35.8698 25.0375C36.7316 24.1639 37.7764 23.7271 39.0042 23.7271C39.1222 23.7271 39.2285 23.733 39.3229 23.7448C39.4174 23.7566 39.5236 23.7625 39.6417 23.7625C39.9722 22.9361 40.5094 22.2691 41.2531 21.7615C41.9969 21.2538 42.8292 21 43.75 21C44.6708 21 45.5031 21.2538 46.2469 21.7615C46.9906 22.2691 47.5278 22.9361 47.8583 23.7625C47.9764 23.7625 48.0826 23.7566 48.1771 23.7448C48.2715 23.733 48.3778 23.7271 48.4958 23.7271C49.7236 23.7271 50.7684 24.1639 51.6302 25.0375C52.492 25.9111 52.9229 26.9618 52.9229 28.1896C52.9229 28.6854 52.8462 29.1635 52.6927 29.624C52.5392 30.0844 52.2972 30.5153 51.9667 30.9167C52.2736 31.3181 52.5097 31.749 52.675 32.2094C52.8403 32.6698 52.9229 33.1479 52.9229 33.6438C52.9229 34.8715 52.492 35.9222 51.6302 36.7958C50.7684 37.6694 49.7236 38.1062 48.4958 38.1062C48.3778 38.1062 48.2715 38.1003 48.1771 38.0885C48.0826 38.0767 47.9764 38.0708 47.8583 38.0708C47.5278 38.8972 46.9906 39.5642 46.2469 40.0719C45.5031 40.5795 44.6708 40.8333 43.75 40.8333ZM43.75 50.75C43.75 49.0028 44.0865 47.3559 44.7594 45.8094C45.4323 44.2628 46.3472 42.9111 47.5042 41.7542C48.6611 40.5972 50.0128 39.6823 51.5594 39.0094C53.1059 38.3365 54.7528 38 56.5 38C56.5 39.7472 56.1635 41.3941 55.4906 42.9406C54.8177 44.4872 53.9028 45.8389 52.7458 46.9958C51.5889 48.1528 50.2372 49.0677 48.6906 49.7406C47.1441 50.4135 45.4972 50.75 43.75 50.75ZM47.2208 47.2792C48.5667 46.7833 49.7472 46.0278 50.7625 45.0125C51.7778 43.9972 52.5333 42.8167 53.0292 41.4708C51.6833 41.9667 50.5028 42.7222 49.4875 43.7375C48.4722 44.7528 47.7167 45.9333 47.2208 47.2792ZM43.75 50.75C43.75 49.0028 43.4135 47.3559 42.7406 45.8094C42.0677 44.2628 41.1528 42.9111 39.9958 41.7542C38.8389 40.5972 37.4872 39.6823 35.9406 39.0094C34.3941 38.3365 32.7472 38 31 38C31 39.7472 31.3365 41.3941 32.0094 42.9406C32.6823 44.4872 33.5972 45.8389 34.7542 46.9958C35.9111 48.1528 37.2628 49.0677 38.8094 49.7406C40.3559 50.4135 42.0028 50.75 43.75 50.75ZM40.2792 47.2792C38.9333 46.7833 37.7528 46.0278 36.7375 45.0125C35.7222 43.9972 34.9667 42.8167 34.4708 41.4708C35.8167 41.9667 36.9972 42.7222 38.0125 43.7375C39.0278 44.7528 39.7833 45.9333 40.2792 47.2792ZM48.4958 35.2729C48.9444 35.2729 49.3281 35.1135 49.6469 34.7948C49.9656 34.476 50.125 34.0924 50.125 33.6438C50.125 33.3132 50.0365 33.024 49.8594 32.776C49.6823 32.5281 49.4521 32.3333 49.1687 32.1917L47.9292 31.5896C47.8819 31.8493 47.8111 32.1031 47.7167 32.351C47.6222 32.599 47.516 32.8292 47.3979 33.0417C47.2799 33.2542 47.1382 33.4549 46.9729 33.6438C46.8076 33.8326 46.6306 34.0097 46.4417 34.175L47.575 34.9896C47.6931 35.084 47.8288 35.1549 47.9823 35.2021C48.1358 35.2493 48.3069 35.2729 48.4958 35.2729ZM47.9292 30.2437L49.1687 29.6417C49.4521 29.5 49.6764 29.2993 49.8417 29.0396C50.0069 28.7799 50.0896 28.4965 50.0896 28.1896C50.0896 27.741 49.9361 27.3573 49.6292 27.0385C49.3222 26.7198 48.9444 26.5604 48.4958 26.5604C48.3069 26.5604 48.1417 26.584 48 26.6312C47.8583 26.6785 47.7167 26.7493 47.575 26.8438L46.4062 27.6583C46.5951 27.8236 46.7781 28.0007 46.9552 28.1896C47.1323 28.3785 47.2799 28.5792 47.3979 28.7917C47.516 29.0042 47.6222 29.2344 47.7167 29.4823C47.8111 29.7302 47.8819 29.984 47.9292 30.2437ZM42.2979 26.95C42.534 26.8556 42.7701 26.7847 43.0063 26.7375C43.2424 26.6903 43.4903 26.6667 43.75 26.6667C44.0097 26.6667 44.2576 26.6903 44.4938 26.7375C44.7299 26.7847 44.966 26.8556 45.2021 26.95L45.3792 25.3917C45.4264 24.9667 45.2788 24.6007 44.9365 24.2938C44.5941 23.9868 44.1986 23.8333 43.75 23.8333C43.3014 23.8333 42.9059 23.9868 42.5635 24.2938C42.2212 24.6007 42.0736 24.9667 42.1208 25.3917L42.2979 26.95ZM43.75 38C44.1986 38 44.5941 37.8465 44.9365 37.5396C45.2788 37.2326 45.4264 36.8667 45.3792 36.4417L45.2021 34.8833C44.966 34.9778 44.7299 35.0486 44.4938 35.0958C44.2576 35.1431 44.0097 35.1667 43.75 35.1667C43.4903 35.1667 43.2424 35.1431 43.0063 35.0958C42.7701 35.0486 42.534 34.9778 42.2979 34.8833L42.1208 36.4417C42.0736 36.8667 42.2212 37.2326 42.5635 37.5396C42.9059 37.8465 43.3014 38 43.75 38ZM39.5708 30.2437C39.6181 29.984 39.6889 29.7302 39.7833 29.4823C39.8778 29.2344 39.984 29.0042 40.1021 28.7917C40.2201 28.5792 40.3618 28.3785 40.5271 28.1896C40.6924 28.0007 40.8694 27.8236 41.0583 27.6583L39.925 26.8438C39.8069 26.7493 39.6712 26.6785 39.5177 26.6312C39.3642 26.584 39.1931 26.5604 39.0042 26.5604C38.5556 26.5604 38.1719 26.7198 37.8531 27.0385C37.5344 27.3573 37.375 27.741 37.375 28.1896C37.375 28.4965 37.4635 28.7799 37.6406 29.0396C37.8177 29.2993 38.0479 29.5 38.3313 29.6417L39.5708 30.2437ZM39.0042 35.2375C39.1931 35.2375 39.3583 35.2198 39.5 35.1844C39.6417 35.149 39.7833 35.0722 39.925 34.9542L41.0938 34.175C40.9049 34.0097 40.7219 33.8326 40.5448 33.6438C40.3677 33.4549 40.2201 33.2542 40.1021 33.0417C39.984 32.8292 39.8778 32.599 39.7833 32.351C39.6889 32.1031 39.6181 31.8493 39.5708 31.5896L38.3313 32.1917C38.0479 32.3333 37.8236 32.534 37.6583 32.7937C37.4931 33.0535 37.4104 33.3368 37.4104 33.6438C37.434 34.0924 37.5934 34.4701 37.8885 34.7771C38.1837 35.084 38.5556 35.2375 39.0042 35.2375Z" fill="black"/>
</svg>
