<svg width="28" height="27" viewBox="0 0 28 27" fill="none" xmlns="http://www.w3.org/2000/svg">
<path d="M3.875 11.375C3.875 7.60376 3.875 5.71815 5.04657 4.54657C6.21815 3.375 8.10376 3.375 11.875 3.375H16.125C19.8962 3.375 21.7819 3.375 22.9534 4.54657C24.125 5.71815 24.125 7.60376 24.125 11.375V15.625C24.125 19.3962 24.125 21.2819 22.9534 22.4534C21.7819 23.625 19.8962 23.625 16.125 23.625H11.875C8.10376 23.625 6.21815 23.625 5.04657 22.4534C3.875 21.2819 3.875 19.3962 3.875 15.625V11.375Z" stroke="black" stroke-width="2"/>
<path d="M14 9L14 18" stroke="black" stroke-width="2" stroke-linecap="square" stroke-linejoin="round"/>
<path d="M18.5 13.5L9.5 13.5" stroke="black" stroke-width="2" stroke-linecap="square" stroke-linejoin="round"/>
</svg>

