<svg width="25" height="25" viewBox="0 0 25 25" fill="none" xmlns="http://www.w3.org/2000/svg">
<rect x="13.5" y="14.5" width="2" height="2" rx="1" fill="#33363F"/>
<rect x="7.5" y="11.5" width="2" height="6" rx="1" fill="#33363F"/>
<rect x="11.5" y="13.5" width="2" height="6" rx="1" transform="rotate(90 11.5 13.5)" fill="#33363F"/>
<rect x="16.5" y="12.5" width="2" height="2" rx="1" fill="#33363F"/>
<path d="M14.5 8.5V8.5C14.5 8.08326 14.5 7.87488 14.4655 7.69144C14.3455 7.0546 13.9245 6.51534 13.3358 6.24455C13.1662 6.16654 12.964 6.116 12.5597 6.01493L12.5 6C12.0388 5.8847 11.8082 5.82706 11.6171 5.733C11.0686 5.46315 10.6737 4.95731 10.5449 4.35979C10.5 4.15151 10.5 3.91382 10.5 3.43845V2.5" stroke="#33363F" stroke-width="2" stroke-linecap="round"/>
<path d="M3.5 14.5C3.5 11.9412 3.5 10.6618 4.11994 9.78042C4.27954 9.55351 4.46572 9.35041 4.67372 9.1763C5.48164 8.5 6.65442 8.5 9 8.5H16C18.3456 8.5 19.5184 8.5 20.3263 9.1763C20.5343 9.35041 20.7205 9.55351 20.8801 9.78042C21.5 10.6618 21.5 11.9412 21.5 14.5C21.5 17.0588 21.5 18.3382 20.8801 19.2196C20.7205 19.4465 20.5343 19.6496 20.3263 19.8237C19.5184 20.5 18.3456 20.5 16 20.5H9C6.65442 20.5 5.48164 20.5 4.67372 19.8237C4.46572 19.6496 4.27954 19.4465 4.11994 19.2196C3.5 18.3382 3.5 17.0588 3.5 14.5Z" stroke="#33363F" stroke-width="2"/>
</svg>
