<svg width="28" height="27" viewBox="0 0 28 27" fill="none" xmlns="http://www.w3.org/2000/svg">
<path d="M6.125 14.3546C6.125 12.8271 6.125 12.0633 6.43377 11.392C6.74254 10.7207 7.32241 10.2236 8.48216 9.22957L9.60716 8.26528C11.7034 6.46851 12.7515 5.57013 14 5.57013C15.2485 5.57013 16.2966 6.46851 18.3928 8.26528L19.5178 9.22957C20.6776 10.2236 21.2575 10.7207 21.5662 11.392C21.875 12.0633 21.875 12.8271 21.875 14.3546V19.125C21.875 21.2463 21.875 22.307 21.216 22.966C20.557 23.625 19.4963 23.625 17.375 23.625H10.625C8.50368 23.625 7.44302 23.625 6.78401 22.966C6.125 22.307 6.125 21.2463 6.125 19.125V14.3546Z" stroke="#33363F" stroke-width="2"/>
<path d="M16.8125 23.625V17.875C16.8125 17.3227 16.3648 16.875 15.8125 16.875H12.1875C11.6352 16.875 11.1875 17.3227 11.1875 17.875V23.625" stroke="#33363F" stroke-width="2" stroke-linecap="round" stroke-linejoin="round"/>
</svg>

