<svg width="28" height="27" viewBox="0 0 28 27" fill="none" xmlns="http://www.w3.org/2000/svg">
<path d="M14.3981 20.0551L14.855 20.9446L14.855 20.9446L14.3981 20.0551ZM13.6019 20.0551L14.0589 19.1656L14.0589 19.1656L13.6019 20.0551ZM20.875 10.125C20.875 12.6093 19.5971 14.6468 18.0299 16.2121C16.4641 17.7759 14.6966 18.7775 13.9411 19.1656L14.855 20.9446C15.6996 20.5107 17.6706 19.3977 19.4432 17.6272C21.2145 15.8581 22.875 13.3415 22.875 10.125H20.875ZM14 3.25C17.797 3.25 20.875 6.32804 20.875 10.125H22.875C22.875 5.22347 18.9015 1.25 14 1.25V3.25ZM7.125 10.125C7.125 6.32804 10.203 3.25 14 3.25V1.25C9.09847 1.25 5.125 5.22347 5.125 10.125H7.125ZM14.0589 19.1656C13.3034 18.7775 11.5359 17.7759 9.97011 16.2121C8.40289 14.6468 7.125 12.6093 7.125 10.125H5.125C5.125 13.3415 6.78554 15.8581 8.55677 17.6272C10.3294 19.3977 12.3004 20.5107 13.145 20.9446L14.0589 19.1656ZM13.9411 19.1656C13.9535 19.1593 13.9742 19.1528 14 19.1528C14.0258 19.1528 14.0465 19.1593 14.0589 19.1656L13.145 20.9446C13.6852 21.2221 14.3148 21.2221 14.855 20.9446L13.9411 19.1656ZM16.375 10.125C16.375 11.4367 15.3117 12.5 14 12.5V14.5C16.4162 14.5 18.375 12.5412 18.375 10.125H16.375ZM14 7.75C15.3117 7.75 16.375 8.81332 16.375 10.125H18.375C18.375 7.70875 16.4162 5.75 14 5.75V7.75ZM11.625 10.125C11.625 8.81332 12.6883 7.75 14 7.75V5.75C11.5838 5.75 9.625 7.70875 9.625 10.125H11.625ZM14 12.5C12.6883 12.5 11.625 11.4367 11.625 10.125H9.625C9.625 12.5412 11.5838 14.5 14 14.5V12.5Z" fill="#33363F"/>
<path d="M22.7685 19.6875C23.6572 20.2006 24.125 20.7826 24.125 21.375C24.125 21.9674 23.6572 22.5494 22.7685 23.0625C21.8799 23.5756 20.6017 24.0016 19.0625 24.2978C17.5233 24.5941 15.7773 24.75 14 24.75C12.2227 24.75 10.4767 24.5941 8.9375 24.2978C7.39831 24.0016 6.12015 23.5756 5.23149 23.0625C4.34284 22.5494 3.875 21.9674 3.875 21.375C3.875 20.7826 4.34284 20.2006 5.23149 19.6875" stroke="#33363F" stroke-width="2" stroke-linecap="round"/>
</svg>
